<svg width="20" height="22" viewBox="0 0 20 22" fill="none" xmlns="http://www.w3.org/2000/svg">
<path d="M3.15 21.7C2.26667 21.7 1.52083 21.3958 0.9125 20.7875C0.304167 20.1792 0 19.4333 0 18.55V5.15C0 4.26667 0.304167 3.52083 0.9125 2.9125C1.52083 2.30417 2.26667 2 3.15 2H3.85V0H6.425V2H13.275V0H15.85V2H16.55C17.4333 2 18.1792 2.30417 18.7875 2.9125C19.3958 3.52083 19.7 4.26667 19.7 5.15V18.55C19.7 19.4333 19.3958 20.1792 18.7875 20.7875C18.1792 21.3958 17.4333 21.7 16.55 21.7H3.15ZM3.15 18.55H16.55V8.85H3.15V18.55ZM3.15 6.85H16.55V5.15H3.15V6.85ZM3.15 6.85V5.15V6.85Z" fill="#0B0B0D"/>
</svg>
